<?xml version="1.0" encoding="UTF-8" standalone="no"?>
<svg width="36px" height="36px" viewBox="0 0 36 36" version="1.1" xmlns="http://www.w3.org/2000/svg" xmlns:xlink="http://www.w3.org/1999/xlink" xmlns:sketch="http://www.bohemiancoding.com/sketch/ns">
    <!-- Generator: Sketch 3.4 (15575) - http://www.bohemiancoding.com/sketch -->
    <title>Close</title>
    <desc>Created with Sketch.</desc>
    <defs></defs>
    <g id="Page-1" stroke="none" stroke-width="1" fill="none" fill-rule="evenodd" sketch:type="MSPage">
        <g id="Close" sketch:type="MSLayerGroup">
            <g id="icomoon-ignore"></g>
            <path d="M18,1.5 C27.096,1.5 34.5,8.9025 34.5,18 C34.5,27.096 27.096,34.5 18,34.5 C8.9025,34.5 1.5,27.096 1.5,18 C1.5,8.9025 8.9025,1.5 18,1.5 L18,1.5 Z M18,0 C8.0595,0 0,8.0595 0,18 C0,27.9405 8.0595,36 18,36 C27.9405,36 36,27.9405 36,18 C36,8.0595 27.9405,0 18,0 L18,0 L18,0 Z" id="Shape" fill="#E7827A" sketch:type="MSShapeGroup"></path>
            <path d="M11.25,25.5 C11.058,25.5 10.866,25.4265 10.719,25.281 C10.4265,24.99 10.4265,24.513 10.719,24.2205 L24.219,10.7205 C24.51,10.428 24.987,10.428 25.2795,10.7205 C25.5705,11.013 25.5705,11.4885 25.2795,11.781 L11.7795,25.281 C11.634,25.4265 11.442,25.5 11.25,25.5 L11.25,25.5 Z" id="Shape" fill="#E7827A" sketch:type="MSShapeGroup"></path>
            <path d="M24.75,25.5 C24.558,25.5 24.366,25.4265 24.219,25.281 L10.719,11.781 C10.4265,11.4885 10.4265,11.013 10.719,10.7205 C11.0115,10.428 11.487,10.428 11.7795,10.7205 L25.2795,24.2205 C25.5705,24.513 25.5705,24.99 25.2795,25.281 C25.134,25.4265 24.942,25.5 24.75,25.5 L24.75,25.5 Z" id="Shape" fill="#E7827A" sketch:type="MSShapeGroup"></path>
        </g>
    </g>
</svg>