<?xml version="1.0" encoding="UTF-8" standalone="no"?>
<svg width="36px" height="36px" viewBox="0 0 36 36" version="1.1" xmlns="http://www.w3.org/2000/svg" xmlns:xlink="http://www.w3.org/1999/xlink" xmlns:sketch="http://www.bohemiancoding.com/sketch/ns">
    <!-- Generator: Sketch 3.4 (15575) - http://www.bohemiancoding.com/sketch -->
    <title>yes</title>
    <desc>Created with Sketch.</desc>
    <defs></defs>
    <g id="Page-1" stroke="none" stroke-width="1" fill="none" fill-rule="evenodd" sketch:type="MSPage">
        <g id="yes" sketch:type="MSLayerGroup">
            <g id="icomoon-ignore"></g>
            <path d="M18,1.5 C27.096,1.5 34.5,8.9025 34.5,18 C34.5,27.096 27.096,34.5 18,34.5 C8.9025,34.5 1.5,27.096 1.5,18 C1.5,8.9025 8.9025,1.5 18,1.5 L18,1.5 Z M18,0 C8.0595,0 0,8.0595 0,18 C0,27.9405 8.0595,36 18,36 C27.9405,36 36,27.9405 36,18 C36,8.0595 27.9405,0 18,0 L18,0 L18,0 Z" id="Shape" fill="#8BC34A" sketch:type="MSShapeGroup"></path>
            <path d="M16.0005,24.594 L9.936,18.531 C9.6435,18.2385 9.6435,17.763 9.936,17.4705 C10.2285,17.178 10.704,17.178 10.9965,17.4705 L16.413,22.884 L24.906,10.086 C25.134,9.741 25.6005,9.645 25.9455,9.876 C26.2905,10.104 26.385,10.5705 26.157,10.9155 L17.157,24.4785 C17.0325,24.666 16.8315,24.789 16.6065,24.8115 C16.5825,24.8115 16.557,24.813 16.5315,24.813 C16.3335,24.813 16.143,24.735 16.0005,24.594 Z" id="Shape" fill="#8BC34A" sketch:type="MSShapeGroup"></path>
        </g>
    </g>
</svg>